<?xml version="1.0" standalone="no"?>
<!DOCTYPE svg PUBLIC "-//W3C//DTD SVG 20010904//EN"
 "http://www.w3.org/TR/2001/REC-SVG-20010904/DTD/svg10.dtd">
<svg version="1.0" xmlns="http://www.w3.org/2000/svg"
 width="662.000000pt" height="246.000000pt" viewBox="0 0 662.000000 246.000000"
 preserveAspectRatio="xMidYMid meet">

<g transform="translate(0.000000,246.000000) scale(0.100000,-0.100000)"
fill="#fff" stroke="none">
<path d="M3210 2280 l0 -170 55 0 55 0 0 -130 0 -130 -55 0 -55 0 0 -910 0
-910 220 0 220 0 0 910 0 910 -60 0 -60 0 0 130 0 130 60 0 60 0 0 170 0 170
-220 0 -220 0 0 -170z"/>
<path d="M4000 1240 l0 -1210 220 0 220 0 0 40 0 40 120 0 120 0 0 -45 0 -45
175 0 175 0 0 220 0 220 -175 0 -175 0 0 -70 0 -70 -120 0 -120 0 0 1065 0
1065 -220 0 -220 0 0 -1210z"/>
<path d="M0 940 l0 -910 401 0 c430 0 547 9 679 52 122 40 228 181 260 346 28
143 -5 335 -74 425 -40 53 -116 111 -167 127 -47 16 -49 24 -9 40 48 20 135
122 161 187 34 87 38 248 10 342 -39 129 -125 227 -239 273 -56 23 -63 23
-539 26 l-483 3 0 -911z m767 517 c47 -25 67 -70 67 -147 0 -74 -19 -120 -61
-147 -22 -15 -54 -19 -170 -21 l-143 -4 0 172 0 172 138 -4 c106 -3 144 -7
169 -21z m44 -690 c51 -25 82 -85 82 -158 0 -77 -26 -127 -83 -156 -40 -21
-58 -23 -197 -23 l-153 0 0 181 0 181 158 -4 c125 -2 164 -7 193 -21z"/>
<path d="M1533 1233 c3 -587 4 -623 25 -709 28 -121 61 -202 115 -277 130
-182 267 -239 577 -241 147 -1 173 2 240 22 110 35 163 67 240 148 78 82 137
191 172 319 22 78 22 96 26 718 l3 637 -226 0 -225 0 0 -580 c0 -390 -4 -596
-11 -632 -29 -138 -109 -208 -237 -208 -75 0 -149 35 -187 89 -55 80 -55 83
-55 733 l0 598 -231 0 -230 0 4 -617z"/>
<path d="M5270 939 l0 -910 393 3 c362 4 398 6 468 25 111 31 165 60 236 126
106 100 180 235 219 405 21 92 30 451 15 577 -40 317 -172 544 -367 631 -108
48 -174 54 -584 54 l-380 0 0 -911z m725 464 c121 -64 159 -177 159 -478 0
-193 -11 -270 -49 -345 -51 -101 -114 -130 -282 -130 l-103 0 0 491 0 491 118
-4 c95 -3 125 -8 157 -25z"/>
</g>
</svg>
