<?xml version="1.0" encoding="UTF-8"?><svg xmlns="http://www.w3.org/2000/svg" viewBox="0 0 500 500"><defs><style>.e{opacity:.1;}.f{fill:#675c5c;}.g{fill:#ccdbdf;}.h{fill:#dde7f1;}.i{fill:#e1e7f5;}.j{fill:#3f474d;}.k{fill:#827877;}.l{fill:#605858;}.m{fill:#5d5655;}.n{opacity:.2;}.o{opacity:.3;}.p,.q{opacity:.4;}.r,.s{opacity:.6;}.s,.t,.q{fill:#fff;}.t{opacity:.5;}</style></defs><g id="a"><g><g><rect class="g" y="382.4" width="500" height=".25"/><rect class="g" x="343.26" y="392.99" width="34.4" height=".25"/><rect class="g" x="91.68" y="393.11" width="19.36" height=".25"/><rect class="g" x="211.76" y="392.53" width="39.24" height=".25"/><rect class="g" x="193.22" y="388.97" width="17.54" height=".25"/><rect class="g" x="371.57" y="389.1" width="52.99" height=".25"/><path class="g" d="M237.01,337.8H43.91c-3.15,0-5.71-2.56-5.71-5.71V60.66c0-3.15,2.56-5.71,5.71-5.71H237.01c3.15,0,5.71,2.56,5.71,5.71V332.09c0,3.15-2.56,5.71-5.71,5.71ZM43.91,55.2c-3.01,0-5.46,2.45-5.46,5.46V332.09c0,3.01,2.45,5.46,5.46,5.46H237.01c3.01,0,5.46-2.45,5.46-5.46V60.66c0-3.01-2.45-5.46-5.46-5.46H43.91Z"/><path class="g" d="M453.31,337.8h-193.1c-3.15,0-5.71-2.56-5.71-5.71V60.66c0-3.15,2.56-5.71,5.71-5.71h193.1c3.15,0,5.71,2.56,5.71,5.71V332.09c0,3.15-2.56,5.71-5.71,5.71ZM260.21,55.2c-3.01,0-5.46,2.45-5.46,5.46V332.09c0,3.01,2.45,5.46,5.46,5.46h193.1c3.01,0,5.46-2.45,5.46-5.46V60.66c0-3.01-2.45-5.46-5.46-5.46h-193.1Z"/></g><g><g><path class="g" d="M439.31,257.23c-12.31-18.73-1.07-38.86-2.94-59.69-1.87-20.83-21.67-25.38-17.92-43.04,4.34-20.47-7.22-40.13-20.33-40.13s-24.68,19.66-20.33,40.13c3.75,17.66-16.05,22.21-17.92,43.04-1.87,20.83,9.36,40.97-2.94,59.69-12.31,18.73-9.08,43.53-2.14,55.84,1.91,3.39,4.16,6.39,6.61,9.05,19.68,21.31,53.77,21.31,73.45,0,2.45-2.66,4.7-5.66,6.61-9.05,6.94-12.31,10.17-37.12-2.14-55.84Z"/><path class="h" d="M398.11,271.44h0c3.43,0,6.22,2.79,6.22,6.22v104.73h-12.44v-104.73c0-3.43,2.79-6.22,6.22-6.22Z"/></g><g><path class="g" d="M319.91,382.4h-16.94v-104.73c0-4.66,3.81-8.47,8.47-8.47h0c4.66,0,8.47,3.81,8.47,8.47v104.73Z"/><circle class="h" cx="311.44" cy="301.98" r="52.17"/><circle class="h" cx="352.79" cy="281.38" r="20.56" transform="translate(-5.34 555.92) rotate(-76.05)"/><circle class="h" cx="269.25" cy="269.2" r="12.17" transform="translate(-39.74 491.67) rotate(-80.75)"/><circle class="h" cx="282.48" cy="262.9" r="8.54"/></g><path class="g" d="M203.97,319.89c-8.69,1.29-16.21,4.44-22.72,8.67-.06-7.91-1.51-15.43-5.23-21.5-5.66,5.52-10.25,12.66-13.96,20.33-1.39-14.43-5.18-28.42-13.57-37.25-12.57,7.91-19.05,21.09-22.13,35.05-5.01-8.94-11.92-17.2-21.46-23.2-7.69,8.1-10.15,19.3-9.94,30.78-8.74-10.17-18.44-18.12-27.9-19.05-2.33,16.11,2.63,31.31,8.93,43.29,8.27,15.71,24.72,25.4,42.47,25.4h41.09c17.51,0,33.93-9.34,42.14-24.81,5.2-9.79,7.68-22.41,2.28-37.7Z"/><path class="h" d="M192.26,112.14c5.08-14.87,1.05-25.46-11.36-25.46-7.78,0-17.43,4.17-26.83,10.95-1.06-3.87-4.05-6.19-8.86-6.19-8.47,0-20.14,7.16-29.29,17.27-2.22-2.25-5.42-3.63-9.54-3.85-8.1-.46-17.92,3.66-26.45,10.35-.74-1.12-2.01-1.82-3.76-1.93-4.67-.26-10.99,3.89-14.13,9.27-.2,.34-.37,.66-.54,.99H194.72c.4-4.69-.43-8.61-2.46-11.41Z"/><path class="h" d="M192.67,202.43c2.48-7.26,.51-12.44-5.55-12.44-3.8,0-8.52,2.04-13.11,5.35-.52-1.89-1.98-3.02-4.33-3.02-4.14,0-9.84,3.5-14.31,8.43-1.08-1.1-2.65-1.77-4.66-1.88-3.96-.22-8.75,1.79-12.92,5.06-.36-.55-.98-.89-1.83-.94-2.28-.13-5.37,1.9-6.9,4.53-.1,.17-.18,.32-.27,.48h65.08c.19-2.29-.21-4.2-1.2-5.57Z"/><path class="h" d="M342.77,147.49c-.51-.07-1.02-.11-1.54-.11,.48-7.26-2.3-11.89-8.22-11.89-4.27,0-9.52,2.42-14.87,6.51,1.53-14.08-3.37-23.24-14.46-23.24-8.95,0-20.28,5.95-31.47,15.67-.98-5.53-4.28-8.84-9.82-8.84-9.73,0-23.56,10.23-34.65,24.67,0,0,0,.02-.01,0-2.4-3.22-5.99-5.21-10.73-5.53-9.27-.65-20.77,5.23-30.97,14.81-.78-1.62-2.19-2.62-4.21-2.75-5.07-.35-12.05,4.93-16.11,12h185.21c4.35-10.72,.88-20.09-8.16-21.3Z"/></g></g></g><g id="b"><ellipse class="i" cx="250" cy="416.24" rx="193.89" ry="11.32"/></g><g id="c"><g><g><g><polygon class="m" points="48.86 150.56 276.83 183.38 307.42 214.25 48.86 150.56"/><polygon class="s" points="48.86 150.56 276.83 183.38 307.42 214.25 48.86 150.56"/></g><g><polygon class="m" points="48.86 150.56 276.83 183.38 266.25 228.02 48.86 150.56"/><polygon class="n" points="48.86 150.56 276.83 183.38 266.25 228.02 48.86 150.56"/></g><g><g><path class="m" d="M261.57,98.88l13.24,62.03c.72,3.36-1.44,6.69-4.8,7.41l-118.08,25.2c-3.36,.72-6.69-1.44-7.41-4.8l-13.24-62.03c-.37-1.76,.04-3.51,1-4.88,.88-1.25,2.21-2.18,3.81-2.53l118.08-25.2c1.6-.34,3.2-.03,4.51,.75,1.43,.86,2.53,2.3,2.9,4.05Z"/><path class="p" d="M261.57,98.88l13.24,62.03c.72,3.36-1.44,6.69-4.8,7.41l-118.08,25.2c-3.36,.72-6.69-1.44-7.41-4.8l-13.24-62.03c-.37-1.76,.04-3.51,1-4.88,.88-1.25,2.21-2.18,3.81-2.53l118.08-25.2c1.6-.34,3.2-.03,4.51,.75,1.43,.86,2.53,2.3,2.9,4.05Z"/></g><path class="m" d="M258.66,94.82l-39.46,48.43c-7.54,9.25-20.49,12.02-31.15,6.65l-55.79-28.11c.88-1.25,2.21-2.18,3.81-2.53l118.08-25.2c1.6-.34,3.2-.03,4.51,.75Z"/></g><g><polygon class="m" points="48.86 150.56 236.89 195.25 266.25 228.02 48.86 150.56"/><polygon class="s" points="48.86 150.56 236.89 195.25 266.25 228.02 48.86 150.56"/></g><rect class="m" x="127.15" y="188.08" width="1" height="24.25" transform="translate(-109.61 209.15) rotate(-59.64)"/><rect class="m" x="150.62" y="209.59" width="1" height="8.72" transform="translate(-109.87 236.19) rotate(-59.64)"/><polygon class="m" points="48.86 150.56 236.89 195.25 200.34 239.3 48.86 150.56"/></g><g><g><path class="m" d="M300.36,255.26c-.24,0-.49-.05-.74-.14l-30.63-12.13c-1.03-.41-1.53-1.57-1.12-2.6,.41-1.03,1.56-1.53,2.6-1.12l30.63,12.13c1.03,.41,1.53,1.57,1.12,2.6-.31,.79-1.06,1.26-1.86,1.26Z"/><path class="o" d="M300.36,255.26c-.24,0-.49-.05-.74-.14l-30.63-12.13c-1.03-.41-1.53-1.57-1.12-2.6,.41-1.03,1.56-1.53,2.6-1.12l30.63,12.13c1.03,.41,1.53,1.57,1.12,2.6-.31,.79-1.06,1.26-1.86,1.26Z"/></g><g><path class="m" d="M298.55,237.7c-.24,0-.49-.05-.74-.14l-16.45-6.51c-1.03-.41-1.53-1.57-1.12-2.6,.41-1.03,1.56-1.53,2.6-1.12l16.45,6.51c1.03,.41,1.53,1.57,1.12,2.6-.31,.79-1.06,1.26-1.86,1.26Z"/><path class="t" d="M298.55,237.7c-.24,0-.49-.05-.74-.14l-16.45-6.51c-1.03-.41-1.53-1.57-1.12-2.6,.41-1.03,1.56-1.53,2.6-1.12l16.45,6.51c1.03,.41,1.53,1.57,1.12,2.6-.31,.79-1.06,1.26-1.86,1.26Z"/></g><g><path class="m" d="M264.16,254.96c-.24,0-.49-.05-.74-.14l-29.87-11.83c-1.03-.41-1.53-1.57-1.12-2.6,.41-1.03,1.57-1.53,2.6-1.12l29.87,11.83c1.03,.41,1.53,1.57,1.12,2.6-.31,.79-1.06,1.26-1.86,1.26Z"/><path class="o" d="M264.16,254.96c-.24,0-.49-.05-.74-.14l-29.87-11.83c-1.03-.41-1.53-1.57-1.12-2.6,.41-1.03,1.57-1.53,2.6-1.12l29.87,11.83c1.03,.41,1.53,1.57,1.12,2.6-.31,.79-1.06,1.26-1.86,1.26Z"/></g></g></g></g><g id="d"><g><path class="k" d="M372.3,164.82c2.65,5.17,5.08,10.35,7.39,15.65,2.29,5.3,4.47,10.67,6.34,16.29l.68,2.13c.11,.38,.29,1,.39,1.44,.09,.46,.19,.94,.25,1.36,.26,1.74,.31,3.32,.34,4.86,.05,3.08-.16,6.02-.42,8.95-.56,5.84-1.47,11.52-2.72,17.22l-5.48-.61c-.07-5.63-.12-11.32-.32-16.87-.1-2.77-.26-5.53-.54-8.14-.14-1.29-.35-2.56-.59-3.62-.06-.28-.13-.5-.2-.73-.08-.25-.11-.31-.22-.6l-.75-1.89c-2.09-5.06-4.44-10.16-6.84-15.24l-7.26-15.23,9.96-4.98Z"/><path class="k" d="M379.14,230.42l-2.56,4.79,8.18,2.28s1.56-3.85-.3-6.89l-5.32-.18Z"/><polygon class="k" points="373.45 242.11 380.97 242.7 384.76 237.49 376.58 235.21 373.45 242.11"/><path class="j" d="M337.87,130.26c-.12,.58-.52,.99-.9,.91-.38-.08-.59-.61-.47-1.19,.12-.58,.52-.99,.9-.91,.38,.08,.59,.61,.47,1.19Z"/><path class="l" d="M337.41,131.26s-2,3.08-3.78,4.4c.83,1.17,2.67,1.08,2.67,1.08l1.12-5.49Z"/><path class="j" d="M340.65,127.47c-.09,0-.19-.04-.26-.11-1.04-1.13-2.28-.94-2.33-.94-.18,.03-.37-.1-.4-.29-.03-.19,.1-.37,.28-.4,.07-.01,1.65-.26,2.96,1.15,.13,.14,.12,.36-.02,.49-.07,.06-.15,.09-.24,.09Z"/><path class="k" d="M354.41,138.43c-1.05,5.37-2.11,15.22,1.65,18.81,0,0-1.47,5.45-11.46,5.45-10.98,0-5.25-5.45-5.25-5.45,5.99-1.43,5.84-5.88,4.79-10.05l10.25-8.75Z"/><path class="j" d="M357.58,160.63c.79-2.63,1.67-5.65-.14-6.59-1.99-1.04-12.86-2.1-16.61-.15-3.75,1.95-2.69,7.29-2.69,7.29l19.44-.55Z"/><path class="m" d="M380.64,410.02c-.75,0-1.48-.12-1.76-.49-.12-.16-.21-.42,0-.83,.12-.21,.3-.35,.55-.41,1.08-.25,3.1,1.14,3.19,1.2,.06,.04,.08,.11,.07,.18-.01,.07-.06,.12-.13,.14-.38,.09-1.16,.21-1.92,.21Zm-.92-1.4c-.08,0-.15,0-.21,.02-.15,.04-.25,.11-.32,.23-.16,.29-.06,.41-.03,.45,.31,.41,1.82,.42,2.91,.23-.63-.39-1.67-.94-2.34-.94Z"/><path class="m" d="M382.52,409.82s-.06,0-.08-.02c-.76-.41-2.23-2.02-2.08-2.84,.03-.15,.14-.41,.55-.46,.26-.03,.52,.04,.74,.22,.85,.7,1.03,2.82,1.04,2.91,0,.06-.03,.12-.08,.16-.03,.02-.06,.03-.09,.03Zm-1.48-2.98s-.05,0-.08,0c-.23,.03-.25,.13-.25,.18-.09,.49,.84,1.7,1.6,2.27-.09-.62-.32-1.85-.87-2.3-.12-.1-.26-.15-.4-.15Z"/><path class="m" d="M336.53,410.02c-.94,0-1.85-.13-2.16-.55-.11-.15-.19-.4,.01-.76,.12-.2,.3-.34,.55-.41,1.22-.33,3.79,1.13,3.9,1.19,.06,.04,.1,.11,.08,.18-.01,.07-.07,.13-.14,.14-.47,.09-1.38,.21-2.25,.21Zm-1.16-1.43c-.12,0-.24,.01-.34,.04-.16,.04-.27,.12-.34,.24-.12,.22-.08,.32-.03,.38,.33,.46,2.19,.48,3.56,.29-.68-.35-2-.96-2.85-.96Z"/><path class="m" d="M338.75,409.82s-.05,0-.07-.01c-.89-.4-2.64-1.99-2.51-2.82,.03-.2,.17-.44,.65-.49,.36-.03,.68,.06,.96,.3,.93,.77,1.13,2.75,1.14,2.83,0,.06-.02,.12-.07,.16-.03,.02-.07,.03-.1,.03Zm-1.79-2.98s-.07,0-.1,0c-.31,.03-.33,.16-.34,.2-.08,.5,1.11,1.75,2.02,2.29-.09-.58-.36-1.76-.97-2.27-.18-.15-.38-.23-.6-.23Z"/><polygon class="k" points="346.83 409.64 339.48 409.64 338.75 392.63 346.1 392.63 346.83 409.64"/><polygon class="k" points="390.94 409.64 383.59 409.64 379.9 392.63 387.24 392.63 390.94 409.64"/><path class="j" d="M383.07,408.79h8.25c.3,0,.56,.21,.63,.5l1.45,6.53c.15,.68-.38,1.32-1.08,1.31-2.88-.05-4.28-.22-7.91-.22-2.23,0-6.83,.23-9.92,.23s-3.49-3.05-2.22-3.33c5.66-1.24,7.79-2.95,9.6-4.57,.33-.29,.75-.45,1.19-.45Z"/><path class="j" d="M339.53,408.79h8.02c.3,0,.56,.21,.63,.5l1.45,6.53c.15,.68-.36,1.32-1.06,1.31-2.89-.05-7.08-.22-10.71-.22-4.25,0-7.93,.23-12.91,.23-3.02,0-3.85-3.05-2.59-3.33,5.75-1.26,10.44-1.39,15.41-4.45,.54-.33,1.14-.57,1.77-.57Z"/><path class="k" d="M335.98,170.14c-6.23-.49-12.22-1.29-18.31-2.43-3.03-.58-6.07-1.23-9.1-2.05-3.04-.81-6.09-1.74-9.16-3.02-.77-.32-1.55-.67-2.32-1.04-.97-.48-1.78-.98-2.49-1.45-1.44-.95-2.68-1.94-3.91-2.92-2.45-1.96-4.72-4-6.97-6.05-4.47-4.14-8.71-8.42-12.8-12.92l3.68-4.11,14.51,10.43c2.39,1.73,4.81,3.41,7.19,5,1.18,.79,2.4,1.53,3.5,2.16,.56,.32,1.06,.55,1.44,.71,.59,.23,1.2,.46,1.83,.67,5.08,1.69,10.82,2.78,16.53,3.7,5.71,.9,11.61,1.65,17.31,2.24l-.91,11.1Z"/><g><path class="m" d="M369.22,158.9c6.89,1.58,13.85,21.71,13.85,21.71l-14.17,10.17s-3.96-9.38-7.85-17.58c-4.08-8.59,1.14-15.91,8.18-14.3Z"/><path class="p" d="M369.22,158.9c6.89,1.58,13.85,21.71,13.85,21.71l-14.17,10.17s-3.96-9.38-7.85-17.58c-4.08-8.59,1.14-15.91,8.18-14.3Z"/></g><g><path class="m" d="M365.25,169.9l-2.81,6.29c2.91,6.28,5.57,12.5,6.28,14.16-.1-7.43-1.51-16.65-3.47-20.45Z"/><path class="r" d="M365.25,169.9l-2.81,6.29c2.91,6.28,5.57,12.5,6.28,14.16-.1-7.43-1.51-16.65-3.47-20.45Z"/></g><g><path class="m" d="M328.07,159.28s-7.82,8.83-.43,63.5h39.29c.27-6.03-3.52-35.46,2.3-63.88,0,0-6.74-1.35-13.15-1.66-5.02-.24-12.29-.4-16.7,0-5.82,.53-11.3,2.04-11.3,2.04Z"/><path class="p" d="M328.07,159.28s-7.82,8.83-.43,63.5h39.29c.27-6.03-3.52-35.46,2.3-63.88,0,0-6.74-1.35-13.15-1.66-5.02-.24-12.29-.4-16.7,0-5.82,.53-11.3,2.04-11.3,2.04Z"/></g><g><path class="m" d="M325.16,169.9c-.26,2.07-.46,4.52-.59,7.41,3.25-1.01,7.29-2.63,10.94-5.14l-10.35-2.27Z"/><path class="r" d="M325.16,169.9c-.26,2.07-.46,4.52-.59,7.41,3.25-1.01,7.29-2.63,10.94-5.14l-10.35-2.27Z"/></g><g><path class="m" d="M341.97,170.97c-5.26,4.66-25.34,4.19-25.34,4.19l-.66-19.41s11.38,1.67,20.47,1.48c11.22-.23,11.3,8.63,5.53,13.74Z"/><path class="p" d="M341.97,170.97c-5.26,4.66-25.34,4.19-25.34,4.19l-.66-19.41s11.38,1.67,20.47,1.48c11.22-.23,11.3,8.63,5.53,13.74Z"/></g><path class="k" d="M274.77,134.24l-5.04-5.89-5.38,5.96s3.31,5.58,8.59,4.7l1.83-4.77Z"/><polygon class="k" points="262.61 121.48 260.67 129.17 264.34 134.31 269.73 128.35 262.61 121.48"/><g><polygon class="f" points="338.75 392.64 339.13 401.41 346.48 401.41 346.1 392.64 338.75 392.64"/><polygon class="f" points="387.25 392.64 379.9 392.64 381.8 401.41 389.15 401.41 387.25 392.64"/></g><path class="j" d="M343.17,122.96c-6.59-3.05-8.67-16.34,10.28-13.05,0,0-2.86,3.17,2.95,5.17,5.8,2,.95,14.43-13.23,7.88Z"/><path class="k" d="M357.49,132.97c-1.89,7.04-2.63,11.26-6.98,14.19-6.54,4.4-14.68-.65-14.93-8.11-.23-6.72,2.9-17.11,10.45-18.53,7.45-1.4,13.34,5.41,11.46,12.45Z"/><path class="j" d="M353.2,113.5c4.49,2.51,10.57,4.01,9.96,7.56-.75,4.35,3.68,1.63,2.65,8.11-.67,4.23-8.48,17.05-13.97,16.42-8.26-.94-7.21-13.55-7.24-20.18-.02-3.91-.2-16.83,8.6-11.91Z"/><path class="j" d="M343.61,119.11c-2,.47-4.65,12,3.1,13.06,8.92,1.22-3.1-13.06-3.1-13.06Z"/><path class="j" d="M343.81,123.2c-2.45,.22-7.98-2.73-7.32-7.17,0,0,3.52,5.19,7.32,7.17Z"/><path class="k" d="M347.45,133.09c-.77,1.75-2.22,3.12-3.62,3.86-2.11,1.1-3.3-.51-2.82-2.62,.43-1.9,2.05-4.77,4.22-5,2.14-.23,3.1,1.77,2.22,3.77Z"/><path class="j" d="M358.45,124.95c1.48-.76,4.86-2.47,5.79-7.32,0,0,3.3,9.22-5.79,7.32Z"/><path class="j" d="M366.79,124.85c-.74-.43-2.42-1.42-4.79-.47,0,0,3.08-3.99,4.79,.47Z"/><g><path class="m" d="M341.57,222.78s8.34,56.14,12.91,77.18c5.01,23.03,23.89,99.76,23.89,99.76h13.46s-12.45-74.86-15.31-97.67c-3.1-24.75-9.6-79.26-9.6-79.26h-25.35Z"/><path class="t" d="M341.57,222.78s8.34,56.14,12.91,77.18c5.01,23.03,23.89,99.76,23.89,99.76h13.46s-12.45-74.86-15.31-97.67c-3.1-24.75-9.6-79.26-9.6-79.26h-25.35Z"/></g><g><path class="m" d="M376.23,394.75c-.06,0,1.39,5.17,1.39,5.17h15.14l-.28-4.61-16.25-.56Z"/><path class="e" d="M376.23,394.75c-.06,0,1.39,5.17,1.39,5.17h15.14l-.28-4.61-16.25-.56Z"/></g><g><path class="m" d="M346.84,242.78c9.64,1.89,8.62,37.84,7.46,56.33-2.78-13.07-6.85-38.22-9.63-56.07,.64-.32,1.36-.42,2.17-.26Z"/><path class="q" d="M346.84,242.78c9.64,1.89,8.62,37.84,7.46,56.33-2.78-13.07-6.85-38.22-9.63-56.07,.64-.32,1.36-.42,2.17-.26Z"/></g><g><path class="m" d="M327.63,222.78s-1.01,54.93-.21,77.33c.83,23.3,8.97,99.6,8.97,99.6h12.44s.46-74.94,1.01-97.82c.6-24.95,3.62-79.11,3.62-79.11h-25.83Z"/><path class="t" d="M327.63,222.78s-1.01,54.93-.21,77.33c.83,23.3,8.97,99.6,8.97,99.6h12.44s.46-74.94,1.01-97.82c.6-24.95,3.62-79.11,3.62-79.11h-25.83Z"/></g><g><path class="m" d="M338.98,390.77c-.06,0-.12-.05-.12-.11-2.19-21.12-7.37-72.21-8.02-90.54-.67-18.71-.06-60.69,.14-73.11,0-.07,.06-.12,.12-.12h0c.07,0,.12,.06,.12,.13-.2,12.42-.81,54.39-.14,73.1,.65,18.32,5.83,69.41,8.02,90.53,0,.07-.04,.13-.11,.14h-.01Z"/><path class="q" d="M338.98,390.77c-.06,0-.12-.05-.12-.11-2.19-21.12-7.37-72.21-8.02-90.54-.67-18.71-.06-60.69,.14-73.11,0-.07,.06-.12,.12-.12h0c.07,0,.12,.06,.12,.13-.2,12.42-.81,54.39-.14,73.1,.65,18.32,5.83,69.41,8.02,90.53,0,.07-.04,.13-.11,.14h-.01Z"/></g><g><path class="m" d="M333.99,394.75c-.06,0,.7,5.17,.7,5.17h15.14l.41-4.61-16.25-.56Z"/><path class="e" d="M333.99,394.75c-.06,0,.7,5.17,.7,5.17h15.14l.41-4.61-16.25-.56Z"/></g></g></g></svg>